# xmcd
#
# Track frame offsets:
#	150
#	14470
#	34013
#	49571
#	63736
#	82791
#	97360
#	112305
#	130817
#	148298
#	166768
#	182521
#	198330
#	213192
#	227970
#	245108
#	264316
#	284987
#	304195
#	330453
#
# Disc length: 4748 seconds
#
# Revision: 1
# Processed by: cddbd v1.5.2PL0 Copyright (c) Steve Scherf et al.
# Submitted via: audiograbber 1.83.01
#
DISCID=2f128a14
DTITLE=Тату - Все звезды
DYEAR=1900
DGENRE=
TTITLE0=Clowns
TTITLE1=Not gonna get us
TTITLE2=All the things she said
TTITLE3=Maltchik-gay
TTITLE4=Show me love
TTITLE5=How soon is now
TTITLE6=30 minutes
TTITLE7=Stars
TTITLE8=Простые движения
TTITLE9=Зачем я
TTITLE10=Я сошла с ума
TTITLE11=Клоуны
TTITLE12=Мальчик-гей
TTITLE13=Полчаса
TTITLE14=Робот
TTITLE15=Я твой враг
TTITLE16=Нас не догонят
TTITLE17=Я твоя не первая
TTITLE18=Крик
TTITLE19=Полчаса (remix)
EXTD=
EXTT0=
EXTT1=
EXTT2=
EXTT3=
EXTT4=
EXTT5=
EXTT6=
EXTT7=
EXTT8=
EXTT9=
EXTT10=
EXTT11=
EXTT12=
EXTT13=
EXTT14=
EXTT15=
EXTT16=
EXTT17=
EXTT18=
EXTT19=
PLAYORDER=
